<?xml version="1.0" encoding="UTF-8" standalone="no"?>
        <svg 
    viewBox="20.047433035714285 -77.197265625 419.53125 59.619140625"
    width="399.4838169642857"
    height="136.81640625"
   xmlns="http://www.w3.org/2000/svg"
   xmlns:svg="http://www.w3.org/2000/svg">
   <path d="M21.09-68.85L21.09-68.85Q19.63-67.68 20.21-65.33L20.21-65.33Q26.66-62.70 34.57-65.33L34.57-65.33Q29.30-56.54 24.02-47.46L24.02-47.46Q26.66-44.24 31.93-45.41L31.93-45.41Q43.36-50.39 52.73-59.18L52.73-59.18Q57.71-65.04 56.25-70.31L56.25-70.31Q46.58-60.06 33.69-53.03L33.69-53.03Q36.62-59.77 41.02-66.80L41.02-66.80Q38.96-70.02 35.45-71.19L35.45-71.19Q27.54-71.48 21.09-68.85ZM28.13-96.39L28.13-96.39Q26.95-94.63 28.42-92.29L28.42-92.29Q34.57-88.77 42.19-87.89L42.19-87.89Q44.24-89.65 43.65-92.87L43.65-92.87Q39.55-95.80 34.86-97.85L34.86-97.85Q30.76-98.44 28.13-96.39ZM82.03-108.40L82.03-108.40Q78.81-107.23 79.10-104.00L79.10-104.00Q90.23-99.61 102.54-101.07L102.54-101.07L102.54-105.47Q92.58-108.69 82.03-108.40ZM74.71-125.10L74.71-125.10Q72.07-113.67 69.43-102.83L69.43-102.83Q60.64-90.23 50.39-77.64L50.39-77.64Q51.27-75 54.49-75.29L54.49-75.29Q58.01-78.22 61.23-82.03L61.23-82.03Q62.40-79.69 64.75-78.22L64.75-78.22Q76.46-83.20 89.06-86.43L89.06-86.43Q84.67-79.39 87.60-69.73L87.60-69.73Q73.83-67.09 62.40-63.57L62.40-63.57Q61.23-60.64 64.16-59.47L64.16-59.47Q69.14-59.77 74.41-60.35L74.41-60.35Q67.68-47.46 57.42-36.04L57.42-36.04Q55.37-28.71 54.49-22.27L54.49-22.27Q48.05-24.02 47.17-18.46L47.17-18.46Q51.27-15.82 57.42-14.36L57.42-14.36Q57.71-6.74 58.59 0.59L58.59 0.59Q44.53 1.46 29.30 1.46L29.30 1.46Q26.07 2.64 24.61 4.69L24.61 4.69Q24.02 7.62 26.66 8.79L26.66 8.79Q77.34 7.03 127.73 3.52L127.73 3.52Q130.37 2.64 130.08-0.29L130.08-0.29Q97.85-2.05 65.33-0.88L65.33-0.88Q64.45-8.79 65.33-16.11L65.33-16.11Q77.93-18.16 90.23-20.80L90.23-20.80Q92.29-22.27 92.29-24.32L92.29-24.32Q80.27-26.37 66.50-22.56L66.50-22.56Q63.87-28.42 63.57-35.16L63.57-35.16Q68.85-42.48 75-48.05L75-48.05Q74.71-43.95 78.22-46.29L78.22-46.29Q76.46-47.46 75-48.34L75-48.34Q78.81-59.47 88.48-63.28L88.48-63.28Q89.65-60.06 89.36-55.08L89.36-55.08Q85.55-53.32 82.62-50.10L82.62-50.10Q84.96-50.68 88.48-49.80L88.48-49.80Q89.94-43.07 87.60-36.33L87.60-36.33Q89.36-35.16 92.29-35.45L92.29-35.45Q95.51-38.38 94.92-43.07L94.92-43.07Q101.66-46.58 106.35-51.27L106.35-51.27Q101.95-56.54 95.51-58.59L95.51-58.59Q95.21-62.40 96.09-65.33L96.09-65.33Q104.30-70.02 112.79-75L112.79-75Q113.09-77.64 111.04-78.52L111.04-78.52Q103.13-73.24 94.92-73.54L94.92-73.54L94.92-87.01Q98.14-89.36 100.78-91.41L100.78-91.41Q100.20-96.39 94.63-95.21L94.63-95.21Q78.52-90.53 63.87-83.20L63.87-83.20Q67.97-93.75 77.64-103.42L77.64-103.42Q82.03-114.55 85.84-125.68L85.84-125.68Q80.57-128.91 74.71-125.10ZM198.05-14.94L198.05-14.94Q199.22-7.32 200.39 0L200.39 0Q202.15 3.22 206.25 6.45L206.25 6.45Q211.23 7.91 216.21 6.45L216.21 6.45Q223.24 0 227.93-7.32L227.93-7.32Q228.22-9.67 226.76-10.84L226.76-10.84Q218.55-5.57 210.94 0.88L210.94 0.88Q208.01-2.05 207.42-5.57L207.42-5.57Q206.84-19.34 208.59-29.59L208.59-29.59Q199.80-25.78 198.05-14.94ZM245.51-36.91L245.51-36.91Q241.99-32.52 239.65-27.54L239.65-27.54Q231.45-23.44 223.54-19.63L223.54-19.63Q222.36-17.58 225-15.23L225-15.23Q239.94-9.38 255.76-4.10L255.76-4.10Q264.26-3.22 273.34-2.34L273.34-2.34Q274.22-3.52 274.51-4.98L274.51-4.98Q254.88-12.30 234.96-19.04L234.96-19.04Q245.80-24.32 252.83-33.69L252.83-33.69Q250.78-38.96 245.51-36.91ZM195.41-36.33L195.41-36.33Q195.12-33.98 197.46-32.23L197.46-32.23Q203.91-32.23 210.06-35.45L210.06-35.45Q217.68-41.89 225.29-48.34L225.29-48.34Q224.12-49.80 222.95-50.10L222.95-50.10Q208.89-43.07 195.41-36.33ZM194.24-101.95L194.24-101.95Q189.84-99.32 193.07-96.39L193.07-96.39Q206.84-99.90 220.61-98.14L220.61-98.14Q222.36-99.32 222.07-101.37L222.07-101.37Q208.30-106.35 194.24-101.95ZM176.07-102.54L176.07-102.54Q175.78-99.61 176.07-95.51L176.07-95.51Q179.30-89.94 185.16-84.67L185.16-84.67L190.72-84.67Q187.79-82.91 186.91-79.10L186.91-79.10Q189.84-76.46 194.82-77.34L194.82-77.34Q207.13-82.03 220.61-84.67L220.61-84.67Q222.36-85.84 222.07-88.18L222.07-88.18Q207.13-88.48 191.02-84.38L191.02-84.38Q187.21-94.92 181.93-103.42L181.93-103.42Q178.42-104.59 176.07-102.54ZM191.89-121.00L191.89-121.00Q189.55-117.77 192.77-115.72L192.77-115.72Q211.82-117.77 230.86-121.00L230.86-121.00Q233.79-115.43 232.03-107.81L232.03-107.81Q225.88-95.51 225.59-81.45L225.59-81.45Q210.94-72.36 193.36-68.26L193.36-68.26Q183.98-46.29 176.66-21.97L176.66-21.97Q176.07-9.08 175.49 2.05L175.49 2.05Q177.83 4.98 182.23 4.10L182.23 4.10Q184.57 2.05 185.45 0L185.45 0Q183.98-9.08 184.28-18.75L184.28-18.75Q187.50-31.93 190.72-44.24L190.72-44.24Q205.66-46.29 220.61-51.27L220.61-51.27Q228.52-54.20 232.03-59.77L232.03-59.77L229.69-62.11Q211.82-54.79 193.65-48.93L193.65-48.93Q195.41-54.79 200.10-61.52L200.10-61.52Q214.75-69.43 229.69-76.76L229.69-76.76Q235.84-98.44 242.58-119.24L242.58-119.24Q240.23-124.22 235.55-128.03L235.55-128.03Q213.87-125.68 191.89-121.00ZM379.39-10.25L379.39-10.25Q379.10-8.50 380.86-7.62L380.86-7.62Q388.18-8.20 395.21-11.43L395.21-11.43Q391.70-8.79 391.70-2.93L391.70-2.93Q397.56-5.57 401.66-11.13L401.66-11.13Q401.95-15.53 397.56-16.41L397.56-16.41Q387.30-15.23 379.39-10.25ZM381.45-19.63L381.45-19.63Q390.23-18.46 399.02-21.39L399.02-21.39Q399.32-23.14 398.44-24.32L398.44-24.32Q391.41-24.32 384.96-24.61L384.96-24.61Q380.57-24.02 381.45-19.63ZM372.95-32.81L372.95-32.81Q384.96-33.98 400.49-37.21L400.49-37.21Q403.42-35.16 404.59-31.64L404.59-31.64Q404.59-25.78 403.71-20.21L403.71-20.21Q405.76-10.25 408.98 0.29L408.98 0.29Q399.90 2.93 389.94 0.59L389.94 0.59Q387.89 1.76 388.48 4.69L388.48 4.69Q404.30 8.20 419.53 7.91L419.53 7.91Q415.14-4.39 411.91-16.11L411.91-16.11L411.91-33.69Q410.45-36.91 408.40-40.14L408.40-40.14Q401.95-42.77 394.63-42.19L394.63-42.19Q381.15-41.02 372.95-32.81ZM381.45-66.21L381.45-66.21Q367.68-47.75 353.32-29.30L353.32-29.30Q358.01-28.42 362.40-32.23L362.40-32.23Q367.38-15.23 368.55 2.05L368.55 2.05Q372.36 4.10 375.29 1.76L375.29 1.76Q373.83-21.39 369.14-39.84L369.14-39.84Q371.78-43.07 374.41-46.29L374.41-46.29Q391.70-46.88 409.28-48.63L409.28-48.63Q396.68-53.91 379.10-52.73L379.10-52.73Q383.50-58.89 386.13-66.21L386.13-66.21Q383.79-67.68 381.45-66.21ZM387.89-73.24L387.89-73.24Q394.92-70.31 404.00-71.19L404.00-71.19Q405.47-72.07 405.47-73.83L405.47-73.83Q399.32-77.93 390.82-77.64L390.82-77.64Q387.30-76.76 387.89-73.24ZM364.75-87.30L364.75-87.30Q360.64-86.43 358.89-82.91L358.89-82.91Q370.31-81.74 382.91-84.67L382.91-84.67Q372.66-78.81 362.70-70.31L362.70-70.31Q355.66-64.16 354.49-53.91L354.49-53.91Q356.54-52.15 359.18-52.44L359.18-52.44Q363.57-62.99 372.07-70.90L372.07-70.90Q381.74-78.81 393.46-84.96L393.46-84.96Q391.11-88.77 386.13-89.65L386.13-89.65Q375-89.36 364.75-87.30ZM333.98-103.13L333.98-103.13Q331.64-99.90 330.76-95.80L330.76-95.80Q334.28-88.48 342.19-83.79L342.19-83.79Q345.12-82.91 348.34-82.62L348.34-82.62Q352.15-83.50 353.03-86.43L353.03-86.43Q348.93-88.48 344.82-89.94L344.82-89.94Q340.43-97.27 338.38-104.00L338.38-104.00Q335.74-104.30 333.98-103.13ZM358.30-126.27L358.30-126.27Q358.30-121.00 358.30-114.55L358.30-114.55Q360.94-108.40 365.63-106.05L365.63-106.05Q354.79-105.47 346.88-100.49L346.88-100.49Q346.88-98.44 349.22-97.85L349.22-97.85Q375.29-104.30 402.83-107.23L402.83-107.23Q406.05-106.35 408.40-103.42L408.40-103.42Q405.47-92.87 402.54-85.25L402.54-85.25Q410.16-86.13 413.96-93.16L413.96-93.16Q416.31-99.32 416.31-106.35L416.31-106.35Q412.21-110.45 406.64-112.50L406.64-112.50Q385.55-112.21 365.92-106.93L365.92-106.93Q367.68-111.62 365.63-116.60L365.63-116.60Q379.10-116.02 391.41-120.70L391.41-120.70Q391.41-123.34 388.77-123.93L388.77-123.93Q375.59-123.34 365.33-119.24L365.33-119.24Q363.28-122.75 364.45-126.86L364.45-126.86Q361.23-128.61 358.30-126.27Z"/>
    </svg>
        