<svg width="225" height="225" version="1.1" xmlns="http://www.w3.org/2000/svg" xmlns:xlink="http://www.w3.org/1999/xlink"><path d="M175.95 67.13L177.30 70.06Q175.05 71.86 166.95 73.43L166.95 73.43L164.25 74.11Q161.55 74.78 148.05 81.08L148.05 81.08Q145.13 82.66 142.65 83.56L142.65 83.56L140.85 83.33Q140.63 81.08 150.53 64.66L150.53 64.66Q150.53 62.63 148.28 60.83L148.28 60.83Q119.70 60.83 75.15 68.48L75.15 68.48L54.90 72.76Q50.18 73.43 46.13 72.76L46.13 72.76L33.52 98.63Q31.05 103.81 27.23 98.41L27.23 98.41Q22.95 92.11 24.30 85.36L24.30 85.36Q24.75 83.56 25.65 82.21L25.65 82.21L29.48 78.38Q37.58 70.28 37.58 60.16L37.58 60.16Q39.15 56.11 43.20 61.51L43.20 61.51L46.80 65.56Q47.48 66.23 47.93 66.23L47.93 66.23L49.50 65.78L49.73 65.78L92.48 59.93Q92.03 38.11 88.65 28.88L88.65 28.88L87.30 25.28Q86.85 18.08 98.78 24.16L98.78 24.16Q104.17 26.86 105.98 28.88L105.98 28.88L103.50 39.23Q107.55 39.23 123.53 36.08L123.53 36.08Q129.83 34.96 134.55 34.96L134.55 34.96L139.72 37.21L140.63 38.56Q140.63 43.28 114.08 44.86L114.08 44.86L103.05 45.08L102.38 45.76L100.35 58.36L140.85 53.41Q146.47 52.96 151.65 52.73L151.65 52.73Q159.30 52.51 168.08 60.38L168.08 60.38Q173.93 65.56 175.95 67.13L175.95 67.13ZM148.28 100.43L148.28 100.43Q151.88 113.03 146.47 113.03L146.47 113.03Q144 113.03 127.35 100.21L127.35 100.21Q122.17 96.16 121.50 95.26L121.50 95.26Q120.15 93.46 120.60 91.66L120.60 91.66Q120.83 91.21 121.05 90.53L121.05 90.53Q139.50 92.33 148.28 100.43ZM123.98 78.61L123.98 78.61L121.95 80.41Q105.08 82.66 91.58 85.36L91.58 85.36L78.30 88.51L76.50 88.51Q71.78 88.51 66.83 84.01L66.83 84.01L66.83 82.66Q92.03 77.71 97.65 76.58L97.65 76.58L110.92 73.21Q111.60 73.21 112.05 73.21L112.05 73.21Q115.88 72.98 119.48 74.56L119.48 74.56Q122.85 75.91 123.98 78.61ZM197.78 142.06L198.68 143.18L197.10 144.76Q174.38 151.28 169.88 151.96L169.88 151.96L162.68 152.18Q150.75 150.83 101.92 111.46L101.92 111.46Q100.58 110.33 99.23 109.43L99.23 109.43L74.70 133.73Q71.10 136.88 67.95 139.58L67.95 139.58Q71.78 144.76 83.48 141.61L83.48 141.61Q88.65 140.48 90 140.26L90 140.26Q93.15 139.81 106.20 135.53L106.20 135.53Q112.95 133.28 117.45 133.28L117.45 133.28Q122.17 133.28 128.70 138.01L128.70 138.01Q132.08 140.48 132.08 142.96L132.08 142.96L130.05 157.13L130.05 157.36L132.30 194.71Q132.30 210.46 128.47 214.73L128.47 214.73Q127.80 215.41 125.10 215.41L125.10 215.41Q122.85 213.38 118.58 205.73L118.58 205.73Q116.55 202.36 114.98 200.56L114.98 200.56Q84.60 202.13 75.60 203.71L75.60 203.71Q74.03 209.11 72.45 211.13L72.45 211.13Q67.05 210.46 65.03 200.78L65.03 200.78Q64.58 198.76 64.58 197.18L64.58 197.18Q64.58 195.83 66.15 191.11L66.15 191.11Q69.53 180.53 67.28 159.16L67.28 159.16Q66.15 148.58 64.13 142.73L64.13 142.73L42.75 158.71Q19.35 174.68 8.33 171.53L8.33 171.53L41.63 148.58Q80.55 120.23 89.33 96.83L89.33 96.83Q92.48 95.71 98.55 98.41L98.55 98.41Q100.13 99.08 101.03 99.31L101.03 99.31L103.95 102.23Q103.95 103.58 102.83 106.06L102.83 106.06L132.75 123.38Q143.55 129.01 153 131.93L153 131.93Q159.30 133.73 187.20 139.58L187.20 139.58Q193.28 140.71 197.78 142.06L197.78 142.06ZM116.33 145.88L116.33 145.88L114.53 143.18Q109.35 143.18 94.50 145.21L94.50 145.21L79.42 148.58L76.95 148.81L76.50 162.08Q109.13 151.73 111.83 161.63L111.83 161.63Q110.25 163.88 77.63 167.26L77.63 167.26Q76.73 167.48 76.28 167.48L76.28 167.48L76.28 179.63Q90.45 175.36 105.30 173.56L105.30 173.56Q112.73 175.58 113.40 179.63L113.40 179.63L111.83 180.76L76.28 185.26L75.83 197.41Q79.65 196.28 84.15 196.06L84.15 196.06L103.95 192.01Q110.70 191.33 115.88 194.03L115.88 194.03Q121.73 192.23 117.67 155.78L117.67 155.78Q116.78 148.81 116.33 145.88ZM72.67 103.36L72.67 103.36Q72.67 105.61 70.42 106.73L70.42 106.73Q67.95 108.08 50.40 119.11L50.40 119.11Q41.85 124.51 35.55 126.98L35.55 126.98L34.20 126.98L34.65 125.41L55.80 102.23Q57.60 100.43 57.60 94.58L57.60 94.58Q62.10 91.88 69.53 99.08L69.53 99.08Q72 101.56 72.67 103.36Z" stroke="#000" fill="black" /></svg>