<svg width="225" height="225" version="1.1" xmlns="http://www.w3.org/2000/svg" xmlns:xlink="http://www.w3.org/1999/xlink"><path d="M154.13 30.15L154.13 30.15Q154.13 32.40 150.08 36.90L150.08 36.90L148.05 39.38Q147.38 40.72 141.75 57.38L141.75 57.38L137.70 67.72L134.78 72.45Q132.97 74.25 131.40 74.70L131.40 74.70Q128.47 74.02 123.75 67.72L123.75 67.72Q123.30 67.05 122.63 66.37L122.63 66.37Q92.48 69.30 82.13 71.77L82.13 71.77L80.33 72.22Q80.33 74.70 78.30 76.05L78.30 76.05Q70.65 73.57 66.83 60.75L66.83 60.75L61.65 42.75Q58.50 34.42 53.55 29.70L53.55 29.70Q53.55 27.67 54.90 27L54.90 27Q57.60 27 65.03 29.47L65.03 29.47L130.05 19.57Q131.63 19.35 141.08 19.35L141.08 19.35Q150.75 25.65 154.13 30.15ZM134.33 31.05L134.33 31.05Q132.30 26.32 123.08 26.55L123.08 26.55L121.73 26.55Q95.85 28.57 72 35.55L72 35.55L74.48 47.92L101.03 41.63Q114.98 38.25 120.60 42.97L120.60 42.97L121.50 43.88Q121.50 45.67 120.15 46.57L120.15 46.57L75.60 53.77Q79.65 64.80 79.88 65.47L79.88 65.47Q94.28 63.45 103.73 61.20L103.73 61.20L114.53 58.50L115.42 58.50L121.95 58.72Q124.88 59.40 126 60.75L126 60.75Q131.18 48.82 134.33 31.05ZM132.75 104.85L132.75 104.85Q132.53 106.20 130.72 107.10L130.72 107.10Q129.38 107.55 118.80 108.67L118.80 108.67L87.98 114.30L86.63 114.30Q81.90 114.30 77.17 109.35L77.17 109.35L77.63 108.45Q87.53 107.32 107.33 103.27L107.33 103.27L119.92 100.57Q120.15 100.57 120.38 100.35L120.38 100.35Q124.42 99.90 128.93 102.15L128.93 102.15Q131.40 103.27 132.75 104.85ZM194.18 193.05L196.65 194.85Q196.20 196.88 193.05 196.88L193.05 196.88L157.72 198.90Q155.47 199.13 152.10 197.78L152.10 197.78L149.40 196.42Q145.35 193.28 122.85 169.20L122.85 169.20Q122.40 168.53 122.17 168.07L122.17 168.07L90.67 132.07L76.50 135.22Q81.45 138.82 83.03 143.55L83.03 143.55Q79.20 165.15 79.20 182.25L79.20 182.25Q79.88 183.82 81.67 183.82L81.67 183.82Q84.38 183.82 103.05 174.82L103.05 174.82Q104.17 174.38 104.63 174.15L104.63 174.15L107.33 174.15L107.33 175.95L80.33 199.35L70.88 208.57Q65.92 208.57 63 201.38L63 201.38Q60.52 195.75 65.70 184.72L65.70 184.72Q69.75 175.95 69.98 172.35L69.98 172.35L71.55 148.27Q72 140.63 66.83 137.02L66.83 137.02Q60.52 132.52 60.08 132.07L60.08 132.07Q40.95 187.65 13.72 202.05L13.72 202.05Q12.60 202.50 10.35 202.50L10.35 202.50L10.80 199.80Q31.50 172.57 38.25 159.53L38.25 159.53Q47.25 142.20 50.63 122.17L50.63 122.17L54.90 102.37Q56.25 92.02 53.33 85.50L53.33 85.50Q53.10 80.10 62.10 85.05L62.10 85.05Q69.30 89.10 70.42 89.10L70.42 89.10Q71.10 89.10 72.90 88.65Q74.70 88.20 105.08 83.70L105.08 83.70Q110.25 82.80 114.30 81.90L114.30 81.90L135.90 76.72Q136.35 76.50 136.80 76.50L136.80 76.50Q140.40 76.05 144.22 77.40L144.22 77.40Q147.15 78.52 148.72 80.55L148.72 80.55Q148.72 83.47 146.70 84.15L146.70 84.15Q143.55 85.27 124.42 87.97L124.42 87.97Q116.10 89.32 70.20 96.07L70.20 96.07Q67.28 101.92 63.45 119.70L63.45 119.70Q62.10 125.32 60.98 128.92L60.98 128.92Q67.50 129.82 120.38 120.37L120.38 120.37Q128.47 118.80 132.30 118.12L132.30 118.12Q143.33 115.87 145.13 115.87L145.13 115.87Q155.93 115.87 162.45 123.30L162.45 123.30Q162.45 125.77 161.10 126.45L161.10 126.45Q159.08 127.35 141.97 127.35L141.97 127.35Q110.48 128.25 96.30 131.40L96.30 131.40L124.65 158.40Q136.13 148.05 138.15 145.57L138.15 145.57Q143.10 139.95 144.45 134.32L144.45 134.32Q151.43 134.32 155.70 141.07L155.70 141.07Q157.72 144.22 157.72 147.38L157.72 147.38Q145.80 151.20 128.25 161.10L128.25 161.10Q144.22 177.30 175.72 187.42L175.72 187.42L192.60 192.38Q193.50 192.60 194.18 193.05L194.18 193.05Z" stroke="#000" fill="black" /></svg>