<svg width="225" height="225" version="1.1" xmlns="http://www.w3.org/2000/svg" xmlns:xlink="http://www.w3.org/1999/xlink"><path d="M189.45 67.99L189.45 67.99Q186.75 72.04 161.10 72.71L161.10 72.71L155.03 72.71Q140.63 63.49 116.78 40.09L116.78 40.09Q112.95 36.26 111.15 34.69L111.15 34.69Q96.53 55.16 93.38 58.99L93.38 58.99Q78.75 76.31 63.68 80.14L63.68 80.14L63.23 79.69Q81.90 60.11 86.85 53.81L86.85 53.81Q101.48 35.36 101.70 23.21L101.70 23.21L101.70 18.04Q101.92 16.91 102.83 16.24L102.83 16.24Q110.70 16.24 115.42 21.19L115.42 21.19L116.55 22.54Q117.90 24.79 114.75 28.16L114.75 28.16L112.73 31.09L112.73 31.31Q137.47 49.31 151.20 55.16L151.20 55.16L156.15 56.96L181.80 64.61Q186.08 66.19 189.45 67.99ZM152.10 127.61L152.10 127.61L148.95 126.49L148.72 126.49L128.03 103.76Q128.03 101.06 128.47 99.94L128.47 99.94Q138.38 101.06 148.05 108.49L148.05 108.49Q155.47 114.34 155.47 120.19L155.47 120.19Q155.47 126.94 152.10 127.61ZM63.90 47.06L63.90 47.06Q62.77 48.64 58.50 48.64L58.50 48.64Q46.35 39.19 38.25 31.09L38.25 31.09L38.93 27.49Q49.95 27.49 58.73 32.44L58.73 32.44Q59.85 33.11 60.75 33.79L60.75 33.79Q63.90 36.49 63.90 47.06ZM150.97 85.99L150.97 85.99Q150.97 88.91 149.18 89.36L149.18 89.36Q148.72 89.59 138.60 89.59L138.60 89.59Q127.58 89.81 117.23 90.94L117.23 90.94L117 121.09Q115.88 135.94 110.48 137.51L110.48 137.51L107.78 136.39Q104.17 132.34 92.03 123.11L92.03 123.11Q89.55 121.31 87.98 119.96L87.98 119.96Q87.98 118.61 88.88 118.16L88.88 118.16L101.03 119.74Q104.17 119.74 106.20 118.16L106.20 118.16Q108.67 107.81 107.78 98.36L107.78 98.36Q107.55 95.21 106.88 92.29L106.88 92.29Q103.50 92.51 82.58 97.01L82.58 97.01Q80.33 97.46 78.53 97.91L78.53 97.91Q71.55 96.34 70.42 92.74L70.42 92.74Q72.23 90.49 106.88 85.99L106.88 85.99Q106.42 77.66 104.63 74.06L104.63 74.06Q98.10 75.41 93.38 74.29L93.38 74.29Q89.78 73.39 87.53 71.36L87.53 71.36L89.10 69.56L115.65 63.26Q126.67 61.46 130.72 64.84L130.72 64.84Q130.72 67.54 128.03 68.44L128.03 68.44L112.50 72.26L110.70 72.94Q117.45 76.54 117.45 83.51L117.45 83.51L117.23 83.96Q132.53 80.59 136.13 80.59L136.13 80.59Q145.58 80.36 150.97 85.99ZM45.23 73.61L45.23 73.61Q41.18 80.59 22.05 61.01L22.05 61.01L21.82 57.19Q41.18 57.19 45.23 66.64L45.23 66.64Q45.90 68.21 45.45 72.04L45.45 72.04Q45.23 72.94 45.23 73.61ZM78.08 106.01L78.08 106.01Q81.45 103.76 81.67 109.39L81.67 109.39Q81.90 117.71 76.28 125.36L76.28 125.36Q74.03 128.74 70.88 130.09L70.88 130.09Q68.63 130.31 67.50 129.19L67.50 129.19Q67.05 128.51 66.83 127.61L66.83 127.61Q65.25 122.21 71.78 114.79L71.78 114.79Q77.17 108.94 78.08 106.01ZM58.50 75.41L58.50 78.56L42.52 114.56Q38.25 125.81 36 135.26L36 135.26Q31.05 138.86 26.55 126.04L26.55 126.04Q24.75 120.86 23.85 116.14L23.85 116.14Q24.53 114.34 28.57 111.41L28.57 111.41Q29.70 110.74 30.38 110.06L30.38 110.06Q36.23 104.66 47.48 88.46L47.48 88.46Q53.55 79.91 57.83 75.41L57.83 75.41L58.50 75.41ZM174.83 190.61L174.83 190.61L172.13 191.74Q111.83 190.39 100.13 190.61L100.13 190.61Q77.63 191.06 58.73 193.54L58.73 193.54L31.05 198.04Q26.10 198.49 20.70 193.76L20.70 193.76Q18.90 192.19 17.55 190.39L17.55 190.39Q17.55 188.14 19.35 188.14L19.35 188.14L85.05 183.64L85.50 163.39L67.95 164.06Q54.45 163.61 52.88 158.21L52.88 158.21Q58.73 156.19 76.05 155.29L76.05 155.29Q81.45 155.06 84.83 154.61L84.83 154.61Q84.15 143.59 80.33 136.39L80.33 136.39Q80.33 133.69 82.35 132.34L82.35 132.34Q93.38 132.79 100.35 140.66L100.35 140.66L98.10 151.69Q99.90 151.69 112.28 148.54L112.28 148.54Q125.10 145.39 131.63 152.36L131.63 152.36Q131.63 154.84 129.38 155.96L129.38 155.96Q124.88 157.76 100.13 160.91L100.13 160.91Q97.65 161.14 96.75 161.14L96.75 161.14L96.08 162.26L93.83 182.51L99.23 182.51L149.85 176.89Q153 176.44 154.58 176.44L154.58 176.44Q160.20 176.44 168.75 181.39L168.75 181.39Q177.30 186.11 174.83 190.61Z" stroke="#000" fill="black" /></svg>